<svg xmlns="http://www.w3.org/2000/svg" width="2774" height="1080" viewBox="0 0 2774 1080">
  <g fill="none" fill-rule="evenodd">
    <path fill="#0098FF" d="M1603.71928,196.105263 L1603.71928,94.1418947 C1603.71928,73.2694737 1591.66876,53.6362105 1572.27423,42.9271579 C1543.23928,26.8976842 1480.36055,0 1385.4456,0 C1290.53065,0 1227.65192,26.8976842 1198.61697,42.9271579 C1179.22244,53.6362105 1167.17192,73.2694737 1167.17192,94.1418947 L1167.17192,247.263158 L1512.77192,341.052632 L1512.77192,409.263158 C1512.77192,418.505684 1506.58749,424.974316 1496.07171,429.771789 L1385.4456,481.736842 L1274.25107,429.510316 C1264.30371,424.974316 1258.11928,418.505684 1258.11928,409.263158 L1258.11928,358.105263 L1167.17192,332.526316 L1167.17192,409.263158 C1167.17192,451.394526 1192.94413,487.227789 1233.87044,505.906105 L1385.4456,579.789474 L1536.45234,506.167579 C1577.94707,487.227789 1603.71928,451.394526 1603.71928,409.263158 L1603.71928,281.368421 L1258.11928,187.578947 L1258.11928,109.728 C1282.81149,98.5528421 1324.90876,85.2631579 1385.4456,85.2631579 C1445.98244,85.2631579 1488.07971,98.5528421 1512.77192,109.728 L1512.77192,170.526316 L1603.71928,196.105263 Z"/>
    <path fill="#FFF" d="M143.549053,1074.31579 C88.9010526,1074.31579 42.0631579,1057.64968 -2.84217094e-14,1032.84379 L26.0223158,995.839579 C68.0854737,1021.05474 106.681263,1033.25305 150.051789,1033.25305 C200.800421,1033.25305 224.651368,1014.94989 224.651368,993.406737 C224.651368,931.608 9.97010526,968.600842 9.97010526,870.207158 C9.97010526,822.232421 61.1507368,784.421053 143.549053,784.421053 C199.061053,784.421053 247.194947,803.940632 275.388632,830.360842 L243.295579,861.271579 C219.012632,841.342737 181.712842,825.483789 142.685053,825.483789 C94.5397895,825.483789 62.0147368,841.752 62.0147368,864.920842 C62.0147368,922.251789 277.128,891.761684 277.128,988.529684 C277.128,1039.75579 222.048,1074.31579 143.549053,1074.31579"/>
    <polygon fill="#FFF" points="487.474 956 487.474 1064.557 435.43 1064.557 435.43 955.591 305.33 793.773 366.037 793.773 463.624 918.996 556.003 793.773 615.847 793.773"/>
    <polygon fill="#FFF" points="978.859 1064.558 978.859 852.321 964.546 881.186 862.196 1064.558 830.967 1064.558 729.924 881.186 715.611 852.321 715.611 1064.558 665.738 1064.558 665.738 793.774 738.155 793.774 835.31 975.919 848.747 1003.567 862.196 975.919 958.043 793.774 1029.596 793.774 1029.596 1064.558"/>
    <path fill="#FFF" d="M1312.66724,874.278189 C1312.66724,851.916505 1296.61503,835.2504 1257.15524,835.2504 L1161.30808,835.2504 L1161.30808,922.662189 L1259.32661,922.662189 C1298.7864,922.662189 1312.66724,904.768295 1312.66724,882.815874 L1312.66724,874.278189 Z M1251.51651,962.508505 L1161.30808,962.508505 L1161.30808,1064.56282 L1109.26345,1064.56282 L1109.26345,793.7784 L1251.51651,793.7784 C1330.44745,793.7784 1365.14387,827.110611 1365.14387,874.278189 L1365.14387,881.599453 C1365.14387,928.755663 1330.44745,962.508505 1251.51651,962.508505 L1251.51651,962.508505 Z"/>
    <polygon fill="#FFF" points="1648.702 1064.558 1648.702 947.873 1474.788 947.873 1474.788 1064.558 1422.754 1064.558 1422.754 793.774 1474.788 793.774 1474.788 908.436 1648.702 908.436 1648.702 793.774 1700.746 793.774 1700.746 1064.558"/>
    <path fill="#FFF" d="M2015.00261,912.494274 C2015.00261,866.145221 1980.73819,826.298905 1917.42745,826.298905 C1854.10535,826.298905 1820.27293,866.145221 1820.27293,912.494274 L1820.27293,945.428589 C1820.27293,991.777642 1854.10535,1032.44248 1917.42745,1032.44248 C1980.73819,1032.44248 2015.00261,991.777642 2015.00261,945.428589 L2015.00261,912.494274 Z M1917.42745,1074.31238 C1824.61566,1074.31238 1767.79629,1012.51364 1767.79629,946.247116 L1767.79629,912.494274 C1767.79629,844.999958 1824.61566,784.417642 1917.42745,784.417642 C2010.65987,784.417642 2067.47924,844.999958 2067.47924,912.494274 L2067.47924,946.247116 C2067.47924,1012.51364 2010.65987,1074.31238 1917.42745,1074.31238 L1917.42745,1074.31238 Z"/>
    <polygon fill="#FFF" points="2367.949 1064.558 2206.188 893.384 2185.361 868.18 2185.361 1064.558 2133.759 1064.558 2133.759 793.774 2181.893 793.774 2338.459 965.357 2359.707 990.561 2359.707 793.774 2410.887 793.774 2410.887 1064.558"/>
    <polygon fill="#FFF" points="2642.522 956 2642.522 1064.557 2590.478 1064.557 2590.478 955.591 2460.378 793.773 2521.096 793.773 2618.671 918.996 2711.051 793.773 2770.895 793.773"/>
  </g>
</svg>
