<svg version="1" xmlns="http://www.w3.org/2000/svg" width="1440" height="1440" viewBox="0 0 1080.000000 1080.000000"><path d="M506.8.5c-.2.1-6.5.6-14.1 1-7.6.3-14.5.8-15.5.9-.9.2-5.3.7-9.7 1.1-9.4.7-12.1 1-19.5 1.9-3 .4-7.5.9-10 1.2-2.5.3-5.2.7-6 .9-.8.3-3.5.7-6 1-4.2.5-18.2 2.8-24 4-1.4.3-4.7.9-7.5 1.4-9.2 1.7-31.9 7-41.5 9.6-18.7 5.2-22.7 6.3-34 10-26.9 8.8-52.4 19.2-77 31.5-29.1 14.5-39.9 21.6-51.8 34-7.3 7.6-16.5 20.9-20.4 29.5-5 11.3-5.6 13-7.3 20.5-.9 4.1-2.1 9-2.6 10.9-.5 1.9-.9 70.4-.9 152.1v148.7l18.2 5.2c10.1 2.9 19.7 5.7 21.3 6.2 5.4 1.7 37.5 11 39.3 11.4.9.2 15.9 4.5 33.2 9.5 54.1 15.8 121.2 35.2 128 37.1 3.6 1 17.3 4.9 30.5 8.7 13.2 3.9 39.1 11.4 57.5 16.7 18.4 5.3 36.4 10.5 40 11.5 6.3 1.9 76.5 22.2 80.5 23.3 1.1.3 5.8 1.7 10.5 3.1 20.7 6 40.9 11.9 45.5 13.1 2.8.7 14.2 4 25.5 7.3s26.1 7.6 33 9.6c6.9 2 15.4 4.5 19 5.5 3.6 1.1 10 2.9 14.3 4.2l7.8 2.2-.3 68.1-.3 68.1-2.8 5.6c-3.3 6.6-7.3 11.2-14.2 16.4-3.8 2.9-54.6 29.1-74 38.2-1.6.8-3.8 1.9-4.9 2.4-3.5 2-60.1 30.3-60.6 30.4-.3 0-1.6.7-3 1.5-1.4.7-16 8.1-32.5 16.3l-29.9 15-100.1-50c-64.1-32.1-102.2-51.7-106.1-54.7-6.9-5.1-9.9-8.8-13.5-16.1l-2.4-5-.5-52.5c-.5-51.5-.5-52.5-2.5-52.8-1.1-.2-7.2-1.9-13.5-3.9-6.3-1.9-15.9-4.8-21.2-6.4-5.4-1.6-14.2-4.2-19.5-5.9-36.3-10.9-100.6-30-101.4-30-.7 0-.9 28.6-.6 82.8.4 88.2.2 83.6 5.1 106 2.7 12.4 11.3 34.1 19.1 48.2 4.1 7.3 14.7 23.5 16.5 25 .3.3 2.4 2.7 4.5 5.5 10.4 13 29.6 29.8 46.5 40.8 11 7.1 14.1 8.8 57.5 31.2 8.3 4.3 19.1 9.9 24 12.5 5 2.6 16.7 8.7 26 13.5 9.4 4.8 21.5 11.1 27 14 5.5 2.9 17.2 9 26 13.5s20.1 10.4 25 13c5 2.6 16.7 8.7 26 13.5 9.4 4.8 20.6 10.7 25 13 11.2 5.9 43.1 22.4 48.6 25.1l4.6 2.3 6.9-3.6c3.8-1.9 12.3-6.3 18.9-9.8 29.5-15.4 111.4-57.9 113.5-58.8.8-.4 5.6-2.9 10.5-5.5 5-2.7 17.1-9 27-14.1 9.9-5.2 22.1-11.5 27-14.1 5-2.6 16.7-8.7 26-13.5 9.4-4.8 21.1-10.9 26-13.5 5-2.6 12.6-6.6 16.9-8.9 4.4-2.3 9.9-5.5 12.3-7.1 2.4-1.7 4.6-3 4.9-3 2.2 0 26.2-19.8 35.6-29.3 29.6-30.3 46.9-65.6 54.5-111.2.3-1.6.7-61.6 1-133.2.4-124.4.3-130.2-1.4-130.7-12.6-3.7-42.3-12.3-47.3-13.7-7.6-2.1-24.1-6.9-46.5-13.4-8.8-2.6-17.3-5-19-5.5-1.6-.4-10-2.8-18.5-5.3s-29-8.5-45.5-13.2c-83.2-24.1-136.3-39.4-158-45.7-22.1-6.4-28.4-8.2-32.5-9.2-.8-.2-3.7-1.1-6.5-2-2.7-.9-22.3-6.6-43.5-12.6-21.2-6.1-42.1-12.2-46.5-13.5-4.4-1.3-19.2-5.6-33-9.5-13.7-3.9-26.3-7.5-28-8-1.6-.6-10.9-3.3-20.5-6-9.6-2.8-19.5-5.6-22-6.4-2.5-.7-11.4-3.3-19.7-5.7l-15.3-4.3V204.3l10.3-4.6c26.8-12 57.5-21.7 90.2-28.6 7.7-1.7 15.4-3.2 17-3.5 1.7-.2 5-.8 7.5-1.1 2.5-.4 5.4-.9 6.4-1.1 1.1-.2 4-.6 6.5-.9 2.5-.3 5.7-.7 7.1-.9 1.4-.3 5.7-.8 9.5-1.1 3.9-.4 8.4-.8 10-1 14.2-1.5 27.8-2 57.5-2 29.6 0 57.2.9 59 2 .3.1 4.3.6 9 1s9.2.8 10 1c.8.1 4 .6 7 1s6.4.9 7.5 1.1c1 .2 3.7.6 6 .9 9.5 1.4 30.8 5.9 51.5 11 .3.1 2.3.7 4.5 1.3 2.2.6 4.3 1.2 4.7 1.2 4.4.4 46.2 16.1 61.1 23l2.7 1.3v113.4l12.3 3.7c6.7 2.1 12.9 3.9 13.7 4.1 1.3.3 55.5 16.5 117.2 35.1 8.1 2.4 15 4.4 15.3 4.4.3 0 .4-46.5.2-103.3-.3-103.1-.3-103.2-2.5-111.2-9.8-35.2-27.4-56.9-61.4-75.8-7.2-4-34.4-17.7-35.2-17.7-.2 0-3.7-1.5-7.8-3.4-12.7-5.9-35.6-14.5-54.3-20.6-12-3.9-41.6-12.1-48.5-13.5-.8-.2-3.3-.8-5.5-1.3-7.6-2-41.4-8.5-50.5-9.7-1.4-.2-7.7-1-14-1.9-6.3-.8-14.3-1.8-17.7-2.1-3.4-.3-7-.8-8.1-1-1-.2-6.8-.6-12.8-1-6-.4-12.5-.9-14.4-1.1-4-.6-81.7-1.4-82.2-.9z"/></svg>