<svg xmlns="http://www.w3.org/2000/svg" width="763" height="1080" viewBox="0 0 763 1080">
  <path fill="#0098FF" fill-rule="evenodd" d="M763,365.294118 L763,175.372941 C763,136.477059 741.938021,99.9158824 708.048104,79.9676471 C657.308604,50.0929412 547.404812,0 381.5,0 C215.595188,0 105.691396,50.0929412 54.9518958,79.9676471 C21.0619792,99.9158824 0,136.477059 0,175.372941 L0,460.588235 L604.041667,635.294118 L604.041667,762.352941 C604.041667,779.553529 593.2325,791.608235 574.856917,800.565882 L381.5,897.352941 L187.141646,800.073529 C169.7675,791.608235 158.958333,779.553529 158.958333,762.352941 L158.958333,667.058824 L0,619.411765 L0,762.352941 C0,840.827647 45.0487917,907.597059 116.580042,942.379412 L381.5,1080 L645.434417,942.871765 C717.951208,907.597059 763,840.827647 763,762.352941 L763,524.117647 L158.958333,349.411765 L158.958333,204.39 C202.115521,183.584118 275.697333,158.823529 381.5,158.823529 C487.302667,158.823529 560.884479,183.584118 604.041667,204.39 L604.041667,317.647059 L763,365.294118 Z"/>
</svg>
